<svg width="32" height="32" viewBox="0 0 32 32" fill="none" xmlns="http://www.w3.org/2000/svg">
<path d="M29.9419 6.96012L29.8925 6.17699L29.12 6.03887C23.7138 5.06887 21.4569 4.36762 16.4119 2.08887L16 1.90137L15.5882 2.08887C10.5432 4.36762 8.28628 5.06887 2.88003 6.03887L2.10753 6.17699L2.05815 6.96012C1.81753 10.7795 2.33065 14.3382 3.58503 17.5376C4.61223 20.1473 6.13241 22.5347 8.06253 24.5695C11.4044 28.1151 14.9525 29.6551 15.6294 29.9276L16.0044 30.0782L16.3794 29.9276C17.0563 29.6551 20.6044 28.1151 23.9463 24.5695C25.8733 22.534 27.3904 20.1466 28.415 17.5376C29.6694 14.3382 30.1825 10.7795 29.9419 6.96012V6.96012ZM14.135 20.4601L9.58565 16.0001L10.9857 14.5714L14.015 17.5395L20.8982 9.58949L22.4107 10.8982L14.135 20.4601Z" fill="#00E0FF"/>
</svg>
