<svg width="32" height="32" viewBox="0 0 32 32" fill="none" xmlns="http://www.w3.org/2000/svg">
<path d="M16 25.255L8.95877 30.5977C8.60988 30.8814 8.22927 31.015 7.81695 30.9987C7.40462 30.9835 7.03987 30.8656 6.7227 30.645C6.40553 30.4244 6.16004 30.1249 5.98623 29.7467C5.81115 29.3684 5.8029 28.9587 5.96149 28.5174L8.67331 19.7704L1.77481 14.9005C1.3942 14.6484 1.15632 14.3174 1.06117 13.9076C0.966017 13.4979 0.981876 13.1196 1.10875 12.7729C1.23561 12.4262 1.45763 12.1185 1.77481 11.85C2.09198 11.5827 2.47259 11.449 2.91663 11.449H11.4327L14.1921 2.37114C14.3507 1.92985 14.5968 1.59069 14.9305 1.35366C15.2629 1.11789 15.6194 1 16 1C16.3806 1 16.7371 1.11789 17.0695 1.35366C17.4032 1.59069 17.6493 1.92985 17.8079 2.37114L20.5673 11.449H29.0834C29.5274 11.449 29.908 11.5827 30.2252 11.85C30.5424 12.1185 30.7644 12.4262 30.8913 12.7729C31.0181 13.1196 31.034 13.4979 30.9388 13.9076C30.8437 14.3174 30.6058 14.6484 30.2252 14.9005L23.3267 19.7704L26.0385 28.5174C26.1971 28.9587 26.1895 29.3684 26.0157 29.7467C25.8406 30.1249 25.5945 30.4244 25.2773 30.645C24.9601 30.8656 24.5954 30.9835 24.1831 30.9987C23.7707 31.015 23.3901 30.8814 23.0412 30.5977L16 25.255Z" fill="#00E0FF"/>
</svg>
